<svg version="1.1" id="nampostLogo" xmlns="http://www.w3.org/2000/svg" xmlns:xlink="http://www.w3.org/1999/xlink" x="0px"
	 y="0px" width="250px" height="250px" viewBox="0 0 250 250" enable-background="new 0 0 250 250" xml:space="preserve">
<g>
	<defs>
		<circle id="SVGID_1_" cx="125" cy="125" r="98.55"/>
	</defs>
	<clipPath id="SVGID_2_">
		<use xlink:href="#SVGID_1_"  overflow="visible"/>
	</clipPath>
	<g clip-path="url(#SVGID_2_)">
		
			<radialGradient id="SVGID_3_" cx="114.1902" cy="106.3318" r="120.3714" gradientTransform="matrix(0.5508 0.8347 -0.8306 0.5481 139.616 -47.2573)" gradientUnits="userSpaceOnUse">
			<stop  offset="0" style="stop-color:#DE304E"/>
			<stop  offset="0.3455" style="stop-color:#DC304E"/>
			<stop  offset="0.5107" style="stop-color:#D42F4D"/>
			<stop  offset="0.6377" style="stop-color:#C72D4C"/>
			<stop  offset="0.7451" style="stop-color:#B52B4B"/>
			<stop  offset="0.8393" style="stop-color:#9D2849"/>
			<stop  offset="0.8532" style="stop-color:#992849"/>
			<stop  offset="1" style="stop-color:#642341"/>
		</radialGradient>
		<circle fill-rule="evenodd" clip-rule="evenodd" fill="url(#SVGID_3_)" cx="125" cy="125" r="98.55"/>
		<g id="gLogoTini">
			<g>
				<path id="XMLID_7_" opacity="0.39" fill-rule="evenodd" clip-rule="evenodd" fill="#D94B77" d="M111.48,57.96
					c21.54,0,39.04,17.86,39.04,39.89c0,22.02-17.49,39.86-39.04,39.86c-21.55,0-39.03-17.84-39.03-39.86
					C72.46,75.81,89.93,57.96,111.48,57.96"/>
				<path opacity="0.402" fill-rule="evenodd" clip-rule="evenodd" fill="#D94C77" d="M111.48,58.26
					c21.38,0,38.74,17.72,38.74,39.59c0,21.85-17.36,39.56-38.74,39.56c-21.39,0-38.73-17.7-38.73-39.56
					C72.76,75.98,90.1,58.26,111.48,58.26"/>
				<path opacity="0.4139" fill-rule="evenodd" clip-rule="evenodd" fill="#DA4E77" d="M111.48,58.57
					c21.21,0,38.44,17.58,38.44,39.28c0,21.68-17.22,39.25-38.44,39.25c-21.22,0-38.43-17.57-38.43-39.25
					C73.06,76.15,90.26,58.57,111.48,58.57"/>
				<path opacity="0.4259" fill-rule="evenodd" clip-rule="evenodd" fill="#DA5077" d="M111.48,58.88
					c21.05,0,38.14,17.44,38.14,38.97c0,21.51-17.09,38.95-38.14,38.95c-21.06,0-38.13-17.43-38.13-38.95
					C73.36,76.32,90.43,58.88,111.48,58.88"/>
				<path opacity="0.4378" fill-rule="evenodd" clip-rule="evenodd" fill="#DB5177" d="M111.48,59.18
					c20.88,0,37.84,17.31,37.84,38.67c0,21.34-16.96,38.64-37.84,38.64c-20.89,0-37.83-17.29-37.83-38.64
					C73.66,76.49,90.59,59.18,111.48,59.18"/>
				<path opacity="0.4498" fill-rule="evenodd" clip-rule="evenodd" fill="#DB5276" d="M111.49,59.49
					c20.72,0,37.54,17.17,37.54,38.36c0,21.17-16.82,38.33-37.54,38.33c-20.73,0-37.53-17.16-37.53-38.33
					C73.96,76.66,90.76,59.49,111.49,59.49"/>
				<path opacity="0.4618" fill-rule="evenodd" clip-rule="evenodd" fill="#DB5476" d="M111.49,59.79
					c20.55,0,37.24,17.03,37.24,38.05c0,21.01-16.69,38.03-37.24,38.03c-20.56,0-37.23-17.02-37.23-38.03
					C74.26,76.83,90.93,59.79,111.49,59.79"/>
				<path opacity="0.4737" fill-rule="evenodd" clip-rule="evenodd" fill="#DC5476" d="M111.49,60.1c20.38,0,36.94,16.9,36.94,37.75
					c0,20.84-16.55,37.72-36.94,37.72c-20.39,0-36.93-16.88-36.93-37.72C74.56,77,91.09,60.1,111.49,60.1"/>
				<path opacity="0.4857" fill-rule="evenodd" clip-rule="evenodd" fill="#DC5676" d="M111.49,60.41
					c20.22,0,36.64,16.76,36.64,37.44c0,20.67-16.42,37.41-36.64,37.41c-20.23,0-36.63-16.75-36.63-37.41
					C74.86,77.17,91.26,60.41,111.49,60.41"/>
				<path opacity="0.4976" fill-rule="evenodd" clip-rule="evenodd" fill="#DC5776" d="M111.49,60.71
					c20.05,0,36.34,16.62,36.34,37.13c0,20.5-16.29,37.11-36.34,37.11c-20.06,0-36.33-16.61-36.33-37.11
					C75.16,77.34,91.42,60.71,111.49,60.71"/>
				<path opacity="0.5096" fill-rule="evenodd" clip-rule="evenodd" fill="#DD5876" d="M111.49,61.02
					c19.89,0,36.04,16.48,36.04,36.83c0,20.33-16.15,36.8-36.04,36.8c-19.9,0-36.03-16.48-36.03-36.8
					C75.46,77.51,91.59,61.02,111.49,61.02"/>
				<path opacity="0.5216" fill-rule="evenodd" clip-rule="evenodd" fill="#DE5975" d="M111.49,61.33
					c19.72,0,35.74,16.35,35.74,36.52c0,20.16-16.02,36.5-35.74,36.5c-19.73,0-35.73-16.34-35.73-36.5
					C75.76,77.68,91.75,61.33,111.49,61.33"/>
				<path opacity="0.5335" fill-rule="evenodd" clip-rule="evenodd" fill="#DE5B75" d="M111.49,61.63
					c19.56,0,35.44,16.21,35.44,36.22c0,19.99-15.88,36.19-35.44,36.19c-19.57,0-35.43-16.2-35.43-36.19
					C76.06,77.84,91.92,61.63,111.49,61.63"/>
				<path opacity="0.5455" fill-rule="evenodd" clip-rule="evenodd" fill="#DF5C75" d="M111.49,61.94
					c19.39,0,35.14,16.07,35.14,35.91c0,19.82-15.75,35.88-35.14,35.88c-19.4,0-35.13-16.07-35.13-35.88
					C76.36,78.01,92.08,61.94,111.49,61.94"/>
				<path opacity="0.5575" fill-rule="evenodd" clip-rule="evenodd" fill="#DF5D75" d="M111.49,62.25
					c19.22,0,34.84,15.94,34.84,35.6c0,19.65-15.62,35.58-34.84,35.58c-19.24,0-34.83-15.93-34.83-35.58
					C76.66,78.18,92.25,62.25,111.49,62.25"/>
				<path opacity="0.5694" fill-rule="evenodd" clip-rule="evenodd" fill="#E05F75" d="M111.49,62.55c19.06,0,34.54,15.8,34.54,35.3
					c0,19.48-15.48,35.27-34.54,35.27c-19.07,0-34.53-15.79-34.53-35.27C76.96,78.35,92.41,62.55,111.49,62.55"/>
				<path opacity="0.5814" fill-rule="evenodd" clip-rule="evenodd" fill="#E06075" d="M111.49,62.86
					c18.89,0,34.24,15.66,34.24,34.99c0,19.31-15.35,34.96-34.24,34.96c-18.91,0-34.23-15.66-34.23-34.96
					C77.26,78.52,92.58,62.86,111.49,62.86"/>
				<path opacity="0.5933" fill-rule="evenodd" clip-rule="evenodd" fill="#E16174" d="M111.49,63.17
					c18.73,0,33.94,15.52,33.94,34.68c0,19.14-15.21,34.66-33.94,34.66c-18.74,0-33.93-15.52-33.93-34.66
					C77.56,78.69,92.75,63.17,111.49,63.17"/>
				<path opacity="0.6053" fill-rule="evenodd" clip-rule="evenodd" fill="#E16274" d="M111.49,63.47
					c18.56,0,33.64,15.39,33.64,34.38c0,18.97-15.08,34.35-33.64,34.35c-18.58,0-33.63-15.38-33.63-34.35
					C77.86,78.86,92.91,63.47,111.49,63.47"/>
				<path opacity="0.6173" fill-rule="evenodd" clip-rule="evenodd" fill="#E16374" d="M111.49,63.78
					c18.4,0,33.34,15.25,33.34,34.07c0,18.8-14.95,34.05-33.34,34.05c-18.41,0-33.33-15.25-33.33-34.05
					C78.16,79.03,93.08,63.78,111.49,63.78"/>
				<path opacity="0.6292" fill-rule="evenodd" clip-rule="evenodd" fill="#E26574" d="M111.49,64.09
					c18.23,0,33.04,15.11,33.04,33.76c0,18.63-14.81,33.74-33.04,33.74c-18.24,0-33.03-15.11-33.03-33.74
					C78.46,79.2,93.24,64.09,111.49,64.09"/>
				<path opacity="0.6412" fill-rule="evenodd" clip-rule="evenodd" fill="#E26674" d="M111.49,64.39
					c18.06,0,32.74,14.98,32.74,33.46c0,18.46-14.68,33.43-32.74,33.43c-18.08,0-32.73-14.97-32.73-33.43
					C78.76,79.37,93.41,64.39,111.49,64.39"/>
				<path opacity="0.6531" fill-rule="evenodd" clip-rule="evenodd" fill="#E36773" d="M111.49,64.7c17.9,0,32.44,14.84,32.44,33.15
					c0,18.29-14.54,33.13-32.44,33.13c-17.91,0-32.43-14.84-32.43-33.13C79.06,79.54,93.57,64.7,111.49,64.7"/>
				<path opacity="0.6651" fill-rule="evenodd" clip-rule="evenodd" fill="#E36873" d="M111.49,65.01
					c17.73,0,32.14,14.7,32.14,32.84c0,18.12-14.41,32.82-32.14,32.82c-17.75,0-32.13-14.7-32.13-32.82
					C79.36,79.71,93.74,65.01,111.49,65.01"/>
				<path opacity="0.6771" fill-rule="evenodd" clip-rule="evenodd" fill="#E46973" d="M111.49,65.31
					c17.57,0,31.84,14.57,31.84,32.54c0,17.95-14.28,32.51-31.84,32.51c-17.58,0-31.83-14.56-31.83-32.51
					C79.66,79.88,93.9,65.31,111.49,65.31"/>
				<path opacity="0.689" fill-rule="evenodd" clip-rule="evenodd" fill="#E46A73" d="M111.49,65.62c17.4,0,31.54,14.43,31.54,32.23
					c0,17.78-14.14,32.21-31.54,32.21c-17.42,0-31.53-14.43-31.53-32.21C79.96,80.05,94.07,65.62,111.49,65.62"/>
				<path opacity="0.701" fill-rule="evenodd" clip-rule="evenodd" fill="#E56C73" d="M111.49,65.93
					c17.24,0,31.24,14.29,31.24,31.92c0,17.61-14.01,31.9-31.24,31.9c-17.25,0-31.23-14.29-31.23-31.9
					C80.26,80.22,94.24,65.93,111.49,65.93"/>
				<path opacity="0.7129" fill-rule="evenodd" clip-rule="evenodd" fill="#E56D73" d="M111.49,66.23
					c17.07,0,30.94,14.15,30.94,31.62c0,17.44-13.87,31.59-30.94,31.59c-17.09,0-30.93-14.15-30.93-31.59
					C80.56,80.39,94.4,66.23,111.49,66.23"/>
				<path opacity="0.7249" fill-rule="evenodd" clip-rule="evenodd" fill="#E66D72" d="M111.49,66.54
					c16.9,0,30.64,14.02,30.64,31.31c0,17.27-13.74,31.29-30.64,31.29c-16.92,0-30.63-14.02-30.63-31.29
					C80.86,80.56,94.57,66.54,111.49,66.54"/>
				<path opacity="0.7369" fill-rule="evenodd" clip-rule="evenodd" fill="#E66F72" d="M111.49,66.85c16.74,0,30.34,13.88,30.34,31
					c0,17.1-13.6,30.98-30.34,30.98c-16.76,0-30.33-13.88-30.33-30.98C81.16,80.73,94.73,66.85,111.49,66.85"/>
				<path opacity="0.7488" fill-rule="evenodd" clip-rule="evenodd" fill="#E77072" d="M111.49,67.15
					c16.57,0,30.04,13.74,30.04,30.7c0,16.93-13.47,30.68-30.04,30.68c-16.59,0-30.03-13.74-30.03-30.68
					C81.46,80.9,94.9,67.15,111.49,67.15"/>
				<path opacity="0.7608" fill-rule="evenodd" clip-rule="evenodd" fill="#E87172" d="M111.49,67.46
					c16.41,0,29.74,13.61,29.74,30.39c0,16.76-13.34,30.37-29.74,30.37c-16.43,0-29.73-13.61-29.73-30.37
					C81.76,81.06,95.06,67.46,111.49,67.46"/>
				<path opacity="0.7727" fill-rule="evenodd" clip-rule="evenodd" fill="#E87272" d="M111.49,67.77
					c16.24,0,29.44,13.47,29.44,30.08c0,16.59-13.2,30.06-29.44,30.06c-16.26,0-29.43-13.47-29.43-30.06
					C82.06,81.23,95.23,67.77,111.49,67.77"/>
				<path opacity="0.7847" fill-rule="evenodd" clip-rule="evenodd" fill="#E97371" d="M111.49,68.07
					c16.08,0,29.14,13.33,29.14,29.78c0,16.42-13.07,29.76-29.14,29.76c-16.09,0-29.13-13.33-29.13-29.76
					C82.36,81.4,95.39,68.07,111.49,68.07"/>
				<path opacity="0.7967" fill-rule="evenodd" clip-rule="evenodd" fill="#E97571" d="M111.49,68.38
					c15.91,0,28.84,13.19,28.84,29.47c0,16.25-12.93,29.45-28.84,29.45c-15.93,0-28.83-13.2-28.83-29.45
					C82.66,81.57,95.56,68.38,111.49,68.38"/>
				<path opacity="0.8086" fill-rule="evenodd" clip-rule="evenodd" fill="#EA7671" d="M111.49,68.69
					c15.74,0,28.54,13.06,28.54,29.16c0,16.08-12.8,29.14-28.54,29.14c-15.76,0-28.53-13.06-28.53-29.14
					C82.96,81.74,95.73,68.69,111.49,68.69"/>
				<path opacity="0.8206" fill-rule="evenodd" clip-rule="evenodd" fill="#EA7670" d="M111.49,68.99
					c15.58,0,28.24,12.92,28.24,28.86c0,15.91-12.67,28.84-28.24,28.84c-15.6,0-28.23-12.92-28.23-28.84
					C83.26,81.91,95.89,68.99,111.49,68.99"/>
				<path opacity="0.8325" fill-rule="evenodd" clip-rule="evenodd" fill="#EB7870" d="M111.49,69.3
					c15.41,0,27.94,12.78,27.94,28.55c0,15.75-12.53,28.53-27.94,28.53c-15.43,0-27.93-12.79-27.93-28.53
					C83.56,82.08,96.06,69.3,111.49,69.3"/>
				<path opacity="0.8445" fill-rule="evenodd" clip-rule="evenodd" fill="#EB7970" d="M111.49,69.61
					c15.25,0,27.64,12.65,27.64,28.24c0,15.58-12.4,28.23-27.64,28.23c-15.27,0-27.63-12.65-27.63-28.23
					C83.86,82.25,96.22,69.61,111.49,69.61"/>
				<path opacity="0.8565" fill-rule="evenodd" clip-rule="evenodd" fill="#EC7970" d="M111.49,69.91
					c15.08,0,27.35,12.51,27.35,27.94c0,15.41-12.26,27.92-27.35,27.92c-15.1,0-27.33-12.51-27.33-27.92
					C84.16,82.42,96.39,69.91,111.49,69.91"/>
				<path opacity="0.8684" fill-rule="evenodd" clip-rule="evenodd" fill="#EC7B6F" d="M111.49,70.22
					c14.92,0,27.05,12.37,27.05,27.63c0,15.24-12.13,27.61-27.05,27.61c-14.94,0-27.03-12.38-27.03-27.61
					C84.46,82.59,96.55,70.22,111.49,70.22"/>
				<path opacity="0.8804" fill-rule="evenodd" clip-rule="evenodd" fill="#ED7C6F" d="M111.49,70.52
					c14.75,0,26.75,12.23,26.75,27.32c0,15.07-12,27.31-26.75,27.31c-14.77,0-26.73-12.24-26.73-27.31
					C84.76,82.76,96.72,70.52,111.49,70.52"/>
				<path opacity="0.8924" fill-rule="evenodd" clip-rule="evenodd" fill="#EE7D6F" d="M111.49,70.83
					c14.58,0,26.45,12.1,26.45,27.02c0,14.9-11.86,27-26.45,27c-14.61,0-26.43-12.1-26.43-27C85.06,82.93,96.88,70.83,111.49,70.83"
					/>
				<path opacity="0.9043" fill-rule="evenodd" clip-rule="evenodd" fill="#EE7E6F" d="M111.49,71.14
					c14.42,0,26.15,11.96,26.15,26.71c0,14.73-11.73,26.69-26.15,26.69c-14.44,0-26.13-11.97-26.13-26.69
					C85.36,83.1,97.05,71.14,111.49,71.14"/>
				<path opacity="0.9163" fill-rule="evenodd" clip-rule="evenodd" fill="#EF7F6E" d="M111.49,71.44
					c14.25,0,25.85,11.82,25.85,26.4c0,14.56-11.59,26.39-25.85,26.39c-14.28,0-25.83-11.83-25.83-26.39
					C85.66,83.27,97.22,71.44,111.49,71.44"/>
				<path opacity="0.9282" fill-rule="evenodd" clip-rule="evenodd" fill="#EF806E" d="M111.49,71.75
					c14.09,0,25.55,11.69,25.55,26.1c0,14.39-11.46,26.08-25.55,26.08c-14.11,0-25.53-11.69-25.53-26.08
					C85.96,83.44,97.38,71.75,111.49,71.75"/>
				<path opacity="0.9402" fill-rule="evenodd" clip-rule="evenodd" fill="#F1806D" d="M111.49,72.06
					c13.92,0,25.25,11.55,25.25,25.79c0,14.22-11.33,25.78-25.25,25.78c-13.94,0-25.24-11.56-25.24-25.78
					C86.26,83.61,97.55,72.06,111.49,72.06"/>
				<path opacity="0.9522" fill-rule="evenodd" clip-rule="evenodd" fill="#F1816D" d="M111.49,72.36
					c13.75,0,24.95,11.41,24.95,25.49c0,14.05-11.19,25.47-24.95,25.47c-13.78,0-24.94-11.42-24.94-25.47
					C86.56,83.78,97.71,72.36,111.49,72.36"/>
				<path opacity="0.9641" fill-rule="evenodd" clip-rule="evenodd" fill="#F2826D" d="M111.49,72.67
					c13.59,0,24.65,11.27,24.65,25.18c0,13.88-11.06,25.16-24.65,25.16c-13.61,0-24.64-11.28-24.64-25.16
					C86.86,83.95,97.88,72.67,111.49,72.67"/>
				<path opacity="0.9761" fill-rule="evenodd" clip-rule="evenodd" fill="#F2836D" d="M111.49,72.98
					c13.42,0,24.35,11.14,24.35,24.87c0,13.71-10.92,24.86-24.35,24.86c-13.45,0-24.34-11.15-24.34-24.86
					C87.16,84.11,98.04,72.98,111.49,72.98"/>
				<path opacity="0.988" fill-rule="evenodd" clip-rule="evenodd" fill="#F4846C" d="M111.49,73.28c13.26,0,24.05,11,24.05,24.57
					c0,13.54-10.79,24.55-24.05,24.55c-13.28,0-24.04-11.01-24.04-24.55C87.46,84.28,98.21,73.28,111.49,73.28"/>
				<path id="XMLID_6_" fill-rule="evenodd" clip-rule="evenodd" fill="#F4856C" d="M111.49,73.59c13.09,0,23.75,10.86,23.75,24.26
					c0,13.37-10.66,24.24-23.75,24.24c-13.12,0-23.74-10.87-23.74-24.24C87.76,84.45,98.37,73.59,111.49,73.59"/>
			</g>
			<rect x="45.2" y="45.2" fill="none" width="159.6" height="159.6"/>
		</g>
		<g id="gBallTini">
			<g>
				<path id="XMLID_5_" opacity="0.36" fill-rule="evenodd" clip-rule="evenodd" fill="#EE4867" d="M36.98,134.81
					c-2.98-3.71-6.96-24.22,12.4-56.92c16.21-31.28,45.18-43.12,62.94-44.36c13.76-1.73,44.37,3.62,45.09,22.51
					c1.03,28.06-20.56,19-39.07,22.87c-48.08,9.17-55.69,26.52-67.76,43.95C43.47,132.99,39.43,138.63,36.98,134.81"/>
				<path opacity="0.3686" fill-rule="evenodd" clip-rule="evenodd" fill="#EE4C68" d="M37.22,134.17
					c-2.95-3.68-5.94-23.46,12.29-56.31c16.9-30.45,44.7-42.2,62.2-43.97c13.64-1.38,43.95,3.35,44.66,22.13
					c1.02,27.75-20.33,19.01-38.66,22.73c-47.44,9.62-55.03,26.4-67.02,43.6C43.7,132.39,39.65,137.95,37.22,134.17"/>
				<path opacity="0.3773" fill-rule="evenodd" clip-rule="evenodd" fill="#EF4F69" d="M37.46,133.54
					c-2.91-3.64-5.85-23.23,12.18-55.71c16.71-30.1,44.16-41.78,61.45-43.59c13.48-1.41,43.53,3.08,44.24,21.76
					c1.01,27.44-20.13,18.86-38.24,22.58c-46.88,9.64-54.43,26.24-66.28,43.26C43.9,131.77,39.86,137.28,37.46,133.54"/>
				<path opacity="0.3859" fill-rule="evenodd" clip-rule="evenodd" fill="#EE526B" d="M37.7,132.9
					c-2.87-3.61-5.76-23.01,12.07-55.1c16.52-29.74,43.63-41.36,60.7-43.2c13.32-1.44,43.1,2.81,43.81,21.38
					c0.99,27.13-19.94,18.71-37.82,22.44c-46.33,9.66-53.83,26.09-65.53,42.91C44.1,131.15,40.07,136.61,37.7,132.9"/>
				<path opacity="0.3945" fill-rule="evenodd" clip-rule="evenodd" fill="#EE556C" d="M37.94,132.27
					c-2.84-3.57-5.67-22.78,11.96-54.49c16.33-29.39,43.1-40.93,59.96-42.81c13.16-1.47,42.68,2.54,43.38,21
					c0.98,26.82-19.74,18.56-37.41,22.3c-45.77,9.69-53.23,25.93-64.79,42.57C44.3,130.53,40.29,135.93,37.94,132.27"/>
				<path opacity="0.4031" fill-rule="evenodd" clip-rule="evenodd" fill="#EE576D" d="M38.18,131.63
					c-2.8-3.54-5.58-22.55,11.85-53.89c16.14-29.03,42.57-40.51,59.21-42.43c13-1.5,42.26,2.28,42.96,20.62
					c0.97,26.51-19.55,18.41-36.99,22.15C70,87.8,62.57,103.86,51.16,120.31C44.49,129.91,40.5,135.26,38.18,131.63"/>
				<path opacity="0.4118" fill-rule="evenodd" clip-rule="evenodd" fill="#ED5A6E" d="M38.42,130.99
					c-2.76-3.5-5.48-22.32,11.74-53.28c15.95-28.67,42.04-40.08,58.46-42.04c12.84-1.53,41.83,2.01,42.53,20.24
					c0.96,26.2-19.35,18.26-36.58,22.01c-44.66,9.74-52.03,25.62-63.31,41.88C44.69,129.29,40.71,134.59,38.42,130.99"/>
				<path opacity="0.4204" fill-rule="evenodd" clip-rule="evenodd" fill="#ED5C6F" d="M38.66,130.36
					c-2.72-3.47-5.39-22.09,11.63-52.67c15.76-28.32,41.51-39.66,57.72-41.66c12.67-1.56,41.41,1.74,42.11,19.86
					c0.95,25.89-19.16,18.1-36.16,21.87c-44.1,9.76-51.44,25.46-62.57,41.53C44.89,128.67,40.93,133.92,38.66,130.36"/>
				<path opacity="0.429" fill-rule="evenodd" clip-rule="evenodd" fill="#EC5F70" d="M38.9,129.72
					c-2.69-3.43-5.3-21.86,11.52-52.07C66,49.7,91.4,38.42,107.39,36.39c12.51-1.59,40.99,1.47,41.68,19.48
					c0.94,25.58-18.96,17.95-35.75,21.73c-43.54,9.79-50.84,25.3-61.83,41.18C45.08,128.05,41.14,133.24,38.9,129.72"/>
				<path opacity="0.4376" fill-rule="evenodd" clip-rule="evenodd" fill="#EC6272" d="M39.14,129.09
					c-2.65-3.4-5.21-21.64,11.41-51.46C65.94,50.02,91,38.82,106.78,36.75c12.35-1.62,40.57,1.2,41.25,19.11
					c0.92,25.27-18.77,17.8-35.33,21.58c-42.99,9.81-50.24,25.15-61.09,40.84C45.28,127.42,41.35,132.57,39.14,129.09"/>
				<path opacity="0.4463" fill-rule="evenodd" clip-rule="evenodd" fill="#EC6473" d="M39.38,128.45
					c-2.61-3.36-5.12-21.41,11.3-50.85c15.2-27.25,39.92-38.39,55.48-40.5c12.19-1.66,40.14,0.93,40.83,18.73
					c0.91,24.96-18.57,17.65-34.92,21.44c-42.43,9.84-49.64,24.99-60.35,40.49C45.48,126.8,41.57,131.9,39.38,128.45"/>
				<path opacity="0.4549" fill-rule="evenodd" clip-rule="evenodd" fill="#EC6774" d="M39.62,127.82
					c-2.58-3.33-5.03-21.18,11.19-50.25c15.01-26.89,39.38-37.96,54.73-40.11c12.03-1.69,39.72,0.66,40.4,18.35
					c0.9,24.65-18.38,17.5-34.5,21.3c-41.87,9.86-49.04,24.83-59.61,40.15C45.67,126.18,41.78,131.22,39.62,127.82"/>
				<path opacity="0.4635" fill-rule="evenodd" clip-rule="evenodd" fill="#EC6975" d="M39.86,127.18
					c-2.54-3.29-4.94-20.95,11.08-49.64c14.82-26.54,38.85-37.54,53.98-39.73c11.86-1.72,39.3,0.4,39.98,17.97
					c0.89,24.34-18.18,17.35-34.09,21.16c-41.32,9.89-48.44,24.67-58.87,39.8C45.87,125.56,41.99,130.55,39.86,127.18"/>
				<path opacity="0.4722" fill-rule="evenodd" clip-rule="evenodd" fill="#EC6B77" d="M40.1,126.55
					c-2.5-3.26-4.85-20.72,10.97-49.03C65.7,51.33,89.39,40.4,104.31,38.17c11.7-1.75,38.87,0.13,39.55,17.59
					c0.88,24.03-17.99,17.2-33.67,21.01c-40.76,9.91-47.84,24.52-58.13,39.46C46.07,124.94,42.2,129.88,40.1,126.55"/>
				<path opacity="0.4808" fill-rule="evenodd" clip-rule="evenodd" fill="#EB6E77" d="M40.34,125.91
					c-2.46-3.22-4.76-20.49,10.86-48.43c14.44-25.83,37.79-36.69,52.49-38.96c11.54-1.78,38.45-0.14,39.12,17.21
					c0.86,23.72-17.79,17.05-33.26,20.87c-40.2,9.94-47.24,24.36-57.39,39.11C46.26,124.32,42.42,129.21,40.34,125.91"/>
				<path opacity="0.4894" fill-rule="evenodd" clip-rule="evenodd" fill="#EC7079" d="M40.58,125.28
					c-2.43-3.19-4.67-20.27,10.75-47.82c14.25-25.47,37.26-36.26,51.74-38.57c11.38-1.81,38.03-0.41,38.7,16.83
					c0.85,23.41-17.6,16.9-32.84,20.73c-39.65,9.96-46.64,24.2-56.64,38.77C46.46,123.7,42.63,128.53,40.58,125.28"/>
				<path opacity="0.498" fill-rule="evenodd" clip-rule="evenodd" fill="#EB727A" d="M40.82,124.64
					c-2.39-3.15-4.58-20.04,10.64-47.21c14.07-25.11,36.73-35.84,51-38.18c11.21-1.84,37.6-0.68,38.27,16.45
					c0.84,23.1-17.4,16.75-32.42,20.59c-39.09,9.99-46.04,24.05-55.9,38.42C46.66,123.08,42.84,127.86,40.82,124.64"/>
				<path opacity="0.5067" fill-rule="evenodd" clip-rule="evenodd" fill="#EB757B" d="M41.06,124.01
					c-2.35-3.11-4.49-19.81,10.53-46.6c13.88-24.76,36.19-35.42,50.25-37.8c11.05-1.87,37.18-0.95,37.84,16.08
					c0.83,22.79-17.21,16.6-32.01,20.44c-38.54,10.02-45.44,23.89-55.16,38.08C46.86,122.46,43.06,127.19,41.06,124.01"/>
				<path opacity="0.5153" fill-rule="evenodd" clip-rule="evenodd" fill="#EB767D" d="M41.3,123.37c-2.32-3.08-4.4-19.58,10.42-46
					c13.69-24.4,35.66-34.99,49.5-37.41c10.89-1.9,36.76-1.22,37.42,15.7c0.82,22.48-17.01,16.45-31.59,20.3
					C69.07,86,62.21,99.69,52.62,113.69C47.05,121.83,43.27,126.51,41.3,123.37"/>
				<path opacity="0.5239" fill-rule="evenodd" clip-rule="evenodd" fill="#EB787E" d="M41.54,122.74
					c-2.28-3.04-4.31-19.35,10.31-45.39c13.5-24.05,35.13-34.57,48.76-37.03c10.73-1.93,36.34-1.48,36.99,15.32
					c0.8,22.17-16.82,16.3-31.18,20.16c-37.42,10.07-44.24,23.57-53.68,37.39C47.25,121.21,43.48,125.84,41.54,122.74"/>
				<path opacity="0.5325" fill-rule="evenodd" clip-rule="evenodd" fill="#EB7B7F" d="M41.78,122.1
					c-2.24-3.01-4.22-19.13,10.2-44.78c13.31-23.69,34.6-34.14,48.01-36.64c10.56-1.97,35.91-1.75,36.57,14.94
					c0.79,21.86-16.63,16.14-30.76,20.01c-36.87,10.09-43.64,23.42-52.94,37.04C47.45,120.59,43.7,125.17,41.78,122.1"/>
				<path opacity="0.5412" fill-rule="evenodd" clip-rule="evenodd" fill="#EB7D80" d="M42.02,121.47
					c-2.2-2.97-4.13-18.9,10.09-44.18c13.12-23.33,34.06-33.72,47.26-36.25c10.4-2,35.49-2.02,36.14,14.56
					c0.78,21.55-16.43,15.99-30.35,19.87c-36.31,10.12-43.04,23.26-52.2,36.7C47.64,119.97,43.91,124.5,42.02,121.47"/>
				<path opacity="0.5498" fill-rule="evenodd" clip-rule="evenodd" fill="#EA7F80" d="M42.26,120.83
					c-2.17-2.94-4.04-18.67,9.98-43.57c12.93-22.98,33.53-33.3,46.52-35.87c10.24-2.03,35.07-2.29,35.71,14.18
					c0.77,21.24-16.24,15.84-29.93,19.73c-35.76,10.14-42.44,23.1-51.46,36.35C47.84,119.35,44.12,123.82,42.26,120.83"/>
				<path opacity="0.5584" fill-rule="evenodd" clip-rule="evenodd" fill="#EA8082" d="M42.5,120.19
					c-2.13-2.9-3.95-18.44,9.87-42.96c12.74-22.62,33-32.87,45.77-35.48c10.08-2.06,34.64-2.56,35.29,13.8
					c0.76,20.93-16.04,15.69-29.52,19.59c-35.2,10.17-41.84,22.95-50.72,36.01C48.04,118.73,44.34,123.15,42.5,120.19"/>
				<path opacity="0.5671" fill-rule="evenodd" clip-rule="evenodd" fill="#EA8283" d="M42.74,119.56
					c-2.09-2.87-3.86-18.21,9.76-42.36c12.55-22.27,32.47-32.45,45.02-35.1c9.91-2.09,34.22-2.83,34.86,13.43
					c0.74,20.62-15.85,15.54-29.1,19.44c-34.65,10.2-41.24,22.79-49.98,35.66C48.23,118.11,44.55,122.48,42.74,119.56"/>
				<path opacity="0.5757" fill-rule="evenodd" clip-rule="evenodd" fill="#EA8384" d="M42.98,118.92
					c-2.06-2.83-3.77-17.99,9.64-41.75C64.99,55.26,84.56,45.15,96.9,42.46c9.75-2.12,33.8-3.1,34.44,13.05
					c0.73,20.31-15.66,15.37-28.69,19.3c-34.11,10.16-40.64,22.63-49.24,35.32C48.43,117.49,44.76,121.8,42.98,118.92"/>
				<path opacity="0.5843" fill-rule="evenodd" clip-rule="evenodd" fill="#EA8686" d="M43.22,118.29
					c-2.02-2.8-3.68-17.76,9.53-41.14c12.18-21.56,31.4-31.6,43.53-34.33c9.59-2.15,33.37-3.36,34.01,12.67
					c0.72,20-15.46,15.22-28.27,19.16c-33.55,10.2-40.05,22.47-48.5,34.97C48.63,116.87,44.97,121.13,43.22,118.29"/>
				<path opacity="0.5929" fill-rule="evenodd" clip-rule="evenodd" fill="#EA8887" d="M43.46,117.65
					c-1.98-2.76-3.59-17.53,9.42-40.54c11.99-21.2,30.87-31.18,42.78-33.94c9.42-2.18,32.95-3.63,33.58,12.29
					c0.71,19.69-15.27,15.08-27.86,19.02C68.4,84.72,61.95,96.8,53.64,109.11C48.82,116.24,45.19,120.46,43.46,117.65"/>
				<path opacity="0.6016" fill-rule="evenodd" clip-rule="evenodd" fill="#EA8A89" d="M43.7,117.02c-1.94-2.73-3.5-17.3,9.31-39.93
					c11.8-20.84,30.33-30.75,42.04-33.55c9.26-2.22,32.53-3.9,33.16,11.91c0.7,19.38-15.07,14.93-27.44,18.87
					C68.33,84.59,61.92,96.48,53.75,108.6C49.02,115.62,45.4,119.79,43.7,117.02"/>
				<path opacity="0.6102" fill-rule="evenodd" clip-rule="evenodd" fill="#EA8C89" d="M43.94,116.38
					c-1.91-2.69-3.41-17.07,9.2-39.32c11.61-20.49,29.8-30.33,41.29-33.17c9.09-2.25,32.14-4.17,32.73,11.53
					c0.72,19.07-14.88,14.79-27.02,18.73c-31.88,10.31-38.25,22-46.27,33.94C49.22,115,45.61,119.11,43.94,116.38"/>
				<path opacity="0.6188" fill-rule="evenodd" clip-rule="evenodd" fill="#E98E8B" d="M44.18,115.75
					c-1.87-2.66-3.32-16.84,9.09-38.72c11.42-20.13,29.26-29.9,40.54-32.78c8.93-2.28,31.71-4.44,32.31,11.15
					c0.71,18.76-14.68,14.64-26.61,18.59C68.2,84.34,61.87,95.84,53.98,107.58C49.41,114.38,45.83,118.44,44.18,115.75"/>
				<path opacity="0.6275" fill-rule="evenodd" clip-rule="evenodd" fill="#E9908C" d="M44.42,115.11
					C42.59,112.49,41.19,98.5,53.4,77c11.23-19.78,28.73-29.48,39.8-32.4c8.77-2.31,31.29-4.71,31.88,10.78
					c0.7,18.45-14.49,14.5-26.19,18.44c-30.76,10.39-37.05,21.69-44.79,33.25C49.61,113.76,46.04,117.77,44.42,115.11"/>
				<path opacity="0.6361" fill-rule="evenodd" clip-rule="evenodd" fill="#E9918D" d="M44.66,114.48
					c-1.8-2.58-3.13-16.39,8.87-37.5c11.04-19.42,28.19-29.06,39.05-32.01c8.6-2.34,30.87-4.98,31.45,10.4
					c0.69,18.14-14.29,14.35-25.78,18.3c-30.2,10.43-36.45,21.53-44.05,32.9C49.81,113.14,46.25,117.1,44.66,114.48"/>
				<path opacity="0.6447" fill-rule="evenodd" clip-rule="evenodd" fill="#E9938F" d="M44.9,113.84
					c-1.76-2.55-3.04-16.16,8.76-36.9c10.86-19.07,27.66-28.64,38.3-31.62c8.43-2.38,30.45-5.24,31.03,10.02
					c0.68,17.83-14.09,14.2-25.36,18.16c-29.64,10.47-35.85,21.37-43.31,32.56C50.01,112.52,46.47,116.42,44.9,113.84"/>
				<path opacity="0.6533" fill-rule="evenodd" clip-rule="evenodd" fill="#E99590" d="M45.14,113.21
					c-1.72-2.51-2.95-15.93,8.65-36.29c10.67-18.71,27.12-28.2,37.56-31.24c8.27-2.4,30.02-5.51,30.6,9.64
					c0.67,17.52-13.9,14.06-24.95,18.02c-29.08,10.51-35.25,21.22-42.57,32.21C50.2,111.9,46.68,115.75,45.14,113.21"/>
				<path opacity="0.662" fill-rule="evenodd" clip-rule="evenodd" fill="#E99792" d="M45.38,112.57
					c-1.68-2.48-2.86-15.7,8.54-35.68C64.4,58.53,80.51,49.12,90.73,46.04c8.11-2.42,29.6-5.78,30.18,9.26
					c0.65,17.21-13.7,13.91-24.53,17.87c-28.52,10.55-34.65,21.06-41.83,31.87C50.4,111.28,46.89,115.08,45.38,112.57"/>
				<path opacity="0.6706" fill-rule="evenodd" clip-rule="evenodd" fill="#E99993" d="M45.62,111.94
					c-1.65-2.44-2.77-15.48,8.43-35.08c10.29-18,26.05-27.36,36.06-30.47c7.94-2.47,29.18-6.05,29.75,8.88
					c0.64,16.9-13.52,13.74-24.12,17.73c-27.99,10.53-34.05,20.9-41.09,31.52C50.6,110.65,47.11,114.4,45.62,111.94"/>
				<path opacity="0.6792" fill-rule="evenodd" clip-rule="evenodd" fill="#E89B94" d="M45.86,111.3
					c-1.61-2.41-2.68-15.25,8.32-34.47C64.28,59.19,79.69,49.9,89.5,46.75c7.78-2.5,28.76-6.32,29.32,8.5
					c0.63,16.59-13.32,13.6-23.7,17.59C67.68,83.4,61.67,93.59,54.77,104.02C50.79,110.03,47.32,113.73,45.86,111.3"/>
				<path opacity="0.6878" fill-rule="evenodd" clip-rule="evenodd" fill="#E89E96" d="M46.1,110.66
					c-1.57-2.37-2.59-15.02,8.21-33.86c9.91-17.29,24.98-26.51,34.57-29.69c7.61-2.53,28.34-6.59,28.9,8.13
					c0.62,16.28-13.13,13.45-23.29,17.45c-26.88,10.59-32.85,20.59-39.61,30.83C50.99,109.41,47.53,113.06,46.1,110.66"/>
				<path opacity="0.6965" fill-rule="evenodd" clip-rule="evenodd" fill="#E99F97" d="M46.34,110.03
					c-1.54-2.34-2.5-14.79,8.1-33.26c9.72-16.93,24.44-26.08,33.82-29.31c7.45-2.56,27.91-6.86,28.47,7.75
					c0.61,15.97-12.93,13.3-22.87,17.3C67.53,83.13,61.61,92.95,55,103C51.19,108.79,47.74,112.39,46.34,110.03"/>
				<path opacity="0.7051" fill-rule="evenodd" clip-rule="evenodd" fill="#E8A199" d="M46.58,109.39
					c-1.5-2.3-2.41-14.56,7.99-32.65c9.53-16.58,23.9-25.66,33.08-28.92c7.28-2.59,27.49-7.12,28.04,7.37
					c0.6,15.66-12.74,13.15-22.45,17.16C67.46,83,61.58,92.62,55.11,102.49C51.38,108.17,47.96,111.71,46.58,109.39"/>
				<path opacity="0.7137" fill-rule="evenodd" clip-rule="evenodd" fill="#E8A39A" d="M46.82,108.76
					c-1.46-2.27-2.32-14.34,7.88-32.04c9.35-16.22,23.37-25.23,32.33-28.54c7.11-2.62,27.07-7.39,27.62,6.99
					c0.59,15.35-12.55,13-22.04,17.02C67.39,82.86,61.55,92.3,55.22,101.98C51.58,107.55,48.17,111.04,46.82,108.76"/>
				<path opacity="0.7224" fill-rule="evenodd" clip-rule="evenodd" fill="#E8A59C" d="M47.06,108.12
					c-1.42-2.23-2.23-14.11,7.77-31.44c9.16-15.86,22.83-24.81,31.58-28.15c6.95-2.65,26.65-7.66,27.19,6.61
					c0.57,15.04-12.35,12.85-21.62,16.88c-24.67,10.71-30.45,19.96-36.64,29.45C51.78,106.93,48.38,110.37,47.06,108.12"/>
				<path opacity="0.731" fill-rule="evenodd" clip-rule="evenodd" fill="#E8A79D" d="M47.3,107.49c-1.39-2.2-2.14-13.88,7.66-30.83
					c8.97-15.51,22.29-24.38,30.84-27.76c6.78-2.68,26.23-7.93,26.77,6.23c0.56,14.73-12.16,12.7-21.21,16.73
					c-24.11,10.74-29.86,19.8-35.9,29.1C51.97,106.31,48.6,109.69,47.3,107.49"/>
				<path opacity="0.7396" fill-rule="evenodd" clip-rule="evenodd" fill="#E8AA9F" d="M47.54,106.85
					c-1.35-2.16-2.05-13.65,7.55-30.22c8.78-15.15,21.75-23.96,30.09-27.38c6.61-2.71,25.8-8.2,26.34,5.85
					c0.55,14.42-11.96,12.55-20.79,16.59c-23.56,10.77-29.26,19.65-35.16,28.76C52.17,105.69,48.81,109.02,47.54,106.85"/>
				<path opacity="0.7482" fill-rule="evenodd" clip-rule="evenodd" fill="#E7ACA0" d="M47.78,106.22
					c-1.31-2.13-1.96-13.42,7.44-29.62c8.59-14.8,21.21-23.53,29.34-26.99c6.45-2.74,25.38-8.47,25.91,5.47
					c0.54,14.11-11.77,12.41-20.38,16.45c-23.01,10.8-28.66,19.49-34.42,28.41C52.37,105.06,49.02,108.35,47.78,106.22"/>
				<path opacity="0.7569" fill-rule="evenodd" clip-rule="evenodd" fill="#E7ADA1" d="M48.02,105.58
					c-1.28-2.09-1.87-13.2,7.33-29.01c8.4-14.44,20.67-23.11,28.6-26.61c6.28-2.77,24.96-8.74,25.49,5.1
					c0.53,13.8-11.58,12.26-19.96,16.3C67.01,82.2,61.41,90.7,55.79,99.43C52.56,104.44,49.24,107.68,48.02,105.58"/>
				<path opacity="0.7655" fill-rule="evenodd" clip-rule="evenodd" fill="#E7AFA3" d="M48.26,104.95
					c-1.24-2.05-1.78-12.97,7.22-28.4c8.21-14.09,20.13-22.68,27.85-26.22c6.11-2.8,24.54-9.01,25.06,4.72
					C108.9,68.53,97,67.15,88.84,71.2C66.94,82.07,61.38,90.38,55.9,98.93C52.76,103.82,49.45,107,48.26,104.95"/>
				<path opacity="0.7741" fill-rule="evenodd" clip-rule="evenodd" fill="#E7B1A5" d="M48.5,104.31c-1.2-2.02-1.69-12.74,7.11-27.8
					c8.02-13.73,19.59-22.25,27.1-25.84c5.94-2.83,24.11-9.27,24.64,4.34c0.5,13.18-11.19,11.96-19.13,16.02
					c-21.35,10.9-26.86,19.02-32.2,27.38C52.96,103.2,49.66,106.33,48.5,104.31"/>
				<path opacity="0.7827" fill-rule="evenodd" clip-rule="evenodd" fill="#E7B4A6" d="M48.74,103.68c-1.16-1.98-1.6-12.51,7-27.19
					c7.84-13.38,19.05-21.83,26.36-25.45c5.77-2.86,23.69-9.54,24.21,3.96c0.49,12.87-11,11.82-18.72,15.88
					C66.79,81.81,61.32,89.73,56.13,97.91C53.15,102.58,49.88,105.66,48.74,103.68"/>
				<path opacity="0.7914" fill-rule="evenodd" clip-rule="evenodd" fill="#E7B6A8" d="M48.98,103.04
					c-1.13-1.95-1.51-12.29,6.89-26.58c7.65-13.02,18.51-21.4,25.61-25.06c5.6-2.89,23.27-9.81,23.78,3.58
					c0.48,12.56-10.8,11.67-18.3,15.73C66.72,81.68,61.3,89.41,56.24,97.4C53.35,101.96,50.09,104.98,48.98,103.04"/>
				<path id="XMLID_4_" opacity="0.8" fill-rule="evenodd" clip-rule="evenodd" fill="#E7B8AA" d="M49.22,102.41
					c-1.09-1.91-1.53-12.12,6.78-25.98c7.36-12.72,18.09-20.74,24.86-24.68c5.53-2.74,22.8-10.08,23.36,3.2
					c0.42,12.25-10.57,11.59-17.89,15.59C66.74,81.73,61.25,89.08,56.35,96.89C53.54,101.33,50.3,104.31,49.22,102.41"/>
			</g>
			<g>
				<path id="XMLID_3_" opacity="0" fill-rule="evenodd" clip-rule="evenodd" fill="#E3ACB4" d="M49.22,102.41
					c-1.09-1.91-1.53-12.12,6.78-25.98c7.36-12.72,18.09-20.74,24.86-24.68c5.53-2.74,22.8-10.08,23.36,3.2
					c0.42,12.25-10.57,11.59-17.89,15.59C66.74,81.73,61.25,89.08,56.35,96.89C53.54,101.33,50.3,104.31,49.22,102.41"/>
				<path opacity="0.0196" fill-rule="evenodd" clip-rule="evenodd" fill="#E3ADB4" d="M49.39,102.04
					c-1.08-1.9-1.4-11.91,6.69-25.65c7.36-12.49,17.73-20.71,24.53-24.38c5.36-2.89,22.55-9.99,23.06,3.12
					c0.47,12.1-10.47,11.39-17.65,15.42c-19.43,10.9-24.75,18.34-29.59,26.04C53.66,100.98,50.46,103.92,49.39,102.04"/>
				<path opacity="0.0392" fill-rule="evenodd" clip-rule="evenodd" fill="#E3AEB5" d="M49.56,101.68
					c-1.06-1.88-1.39-11.77,6.61-25.33c7.26-12.32,17.49-20.45,24.2-24.09c5.29-2.87,22.25-9.9,22.75,3.04
					c0.47,11.95-10.32,11.26-17.41,15.25C66.54,81.34,61.29,88.7,56.51,96.29C53.77,100.62,50.62,103.53,49.56,101.68"/>
				<path opacity="0.0588" fill-rule="evenodd" clip-rule="evenodd" fill="#E3AFB6" d="M49.73,101.32
					c-1.05-1.86-1.38-11.62,6.52-25.01c7.17-12.15,17.25-20.19,23.87-23.8c5.22-2.84,21.95-9.81,22.45,2.96
					c0.47,11.8-10.18,11.13-17.18,15.08C66.49,81.23,61.3,88.51,56.6,95.99C53.89,100.27,50.77,103.14,49.73,101.32"/>
				<path opacity="0.0784" fill-rule="evenodd" clip-rule="evenodd" fill="#E4B0B7" d="M49.9,100.96
					c-1.04-1.84-1.36-11.47,6.44-24.69c7.07-11.98,17.01-19.93,23.54-23.5c5.15-2.82,21.65-9.73,22.15,2.87
					c0.47,11.65-10.04,11-16.94,14.91C66.44,81.12,61.32,88.32,56.68,95.69C54.01,99.91,50.93,102.75,49.9,100.96"/>
				<path opacity="0.098" fill-rule="evenodd" clip-rule="evenodd" fill="#E4B1B7" d="M50.08,100.6
					c-1.02-1.82-1.35-11.33,6.35-24.37C63.4,64.42,73.2,56.56,79.64,53.02c5.08-2.79,21.34-9.64,21.85,2.79
					c0.47,11.49-9.9,10.87-16.7,14.74c-18.4,10.46-23.45,17.57-28.03,24.84C54.13,99.56,51.09,102.36,50.08,100.6"/>
				<path opacity="0.1176" fill-rule="evenodd" clip-rule="evenodd" fill="#E4B2B8" d="M50.25,100.24
					c-1.01-1.81-1.33-11.18,6.26-24.04c6.88-11.64,16.54-19.41,22.88-22.92c5-2.77,21.04-9.55,21.55,2.71
					c0.47,11.34-9.76,10.74-16.47,14.57C66.34,80.91,61.36,87.94,56.84,95.09C54.25,99.21,51.25,101.98,50.25,100.24"/>
				<path opacity="0.1373" fill-rule="evenodd" clip-rule="evenodd" fill="#E4B3B9" d="M50.42,99.88c-1-1.79-1.32-11.03,6.18-23.72
					c6.78-11.47,16.3-19.15,22.55-22.62c4.93-2.74,20.74-9.46,21.25,2.63c0.46,11.19-9.62,10.61-16.23,14.4
					C66.29,80.8,61.38,87.74,56.92,94.79C54.37,98.85,51.4,101.59,50.42,99.88"/>
				<path opacity="0.1569" fill-rule="evenodd" clip-rule="evenodd" fill="#E5B4B9" d="M50.59,99.52c-0.99-1.77-1.3-10.89,6.09-23.4
					c6.68-11.3,16.06-18.89,22.22-22.33c4.86-2.71,20.44-9.37,20.94,2.54c0.46,11.04-9.47,10.48-15.99,14.23
					C66.24,80.69,61.39,87.55,57,94.49C54.48,98.5,51.56,101.2,50.59,99.52"/>
				<path opacity="0.1765" fill-rule="evenodd" clip-rule="evenodd" fill="#E5B6BB" d="M50.77,99.16
					c-0.97-1.75-1.29-10.74,6.01-23.08c6.58-11.13,15.82-18.63,21.89-22.04c4.79-2.69,20.14-9.28,20.64,2.46
					c0.46,10.89-9.33,10.35-15.76,14.06C66.18,80.58,61.4,87.35,57.08,94.19C54.59,98.14,51.72,100.81,50.77,99.16"/>
				<path opacity="0.1961" fill-rule="evenodd" clip-rule="evenodd" fill="#E5B7BB" d="M50.94,98.8c-0.96-1.73-1.27-10.6,5.92-22.76
					c6.49-10.96,15.58-18.37,21.56-21.74c4.72-2.66,19.84-9.19,20.34,2.38c0.46,10.74-9.19,10.22-15.52,13.89
					c-17.11,9.92-21.83,16.6-26.08,23.33C54.71,97.78,51.88,100.42,50.94,98.8"/>
				<path opacity="0.2157" fill-rule="evenodd" clip-rule="evenodd" fill="#E6B8BC" d="M51.11,98.43
					c-0.95-1.72-1.26-10.45,5.84-22.43c6.39-10.79,15.35-18.11,21.23-21.45c4.65-2.64,19.54-9.11,20.04,2.29
					c0.46,10.59-9.05,10.09-15.28,13.72c-16.85,9.81-21.51,16.41-25.69,23.03C54.83,97.43,52.03,100.03,51.11,98.43"/>
				<path opacity="0.2353" fill-rule="evenodd" clip-rule="evenodd" fill="#E6B9BD" d="M51.28,98.07c-0.93-1.7-1.25-10.3,5.75-22.11
					c6.29-10.62,15.11-17.85,20.9-21.16c4.58-2.61,19.24-9.02,19.74,2.21c0.46,10.44-8.91,9.96-15.05,13.54
					c-16.59,9.7-21.18,16.21-25.3,22.73C54.94,97.07,52.19,99.64,51.28,98.07"/>
				<path opacity="0.2549" fill-rule="evenodd" clip-rule="evenodd" fill="#E6BABD" d="M51.45,97.71
					c-0.92-1.68-1.23-10.16,5.67-21.79c6.2-10.45,14.87-17.59,20.57-20.86c4.5-2.59,18.94-8.93,19.43,2.13
					c0.46,10.29-8.77,9.83-14.81,13.37C65.98,80.16,61.46,86.58,57.41,93C55.06,96.72,52.35,99.25,51.45,97.71"/>
				<path opacity="0.2745" fill-rule="evenodd" clip-rule="evenodd" fill="#E6BBBF" d="M51.63,97.35
					c-0.91-1.66-1.22-10.01,5.58-21.47c6.1-10.28,14.63-17.33,20.24-20.57c4.43-2.56,18.64-8.84,19.13,2.05
					c0.46,10.14-8.62,9.7-14.57,13.2C65.93,80.05,61.47,86.39,57.49,92.7C55.18,96.36,52.51,98.86,51.63,97.35"/>
				<path opacity="0.2941" fill-rule="evenodd" clip-rule="evenodd" fill="#E7BCBF" d="M51.8,96.99c-0.89-1.65-1.2-9.87,5.49-21.15
					c6-10.11,14.39-17.07,19.91-20.28c4.36-2.54,18.34-8.75,18.83,1.96c0.46,9.99-8.48,9.57-14.34,13.03
					C65.88,79.94,61.48,86.19,57.57,92.4C55.29,96,52.66,98.47,51.8,96.99"/>
				<path opacity="0.3137" fill-rule="evenodd" clip-rule="evenodd" fill="#E7BDC0" d="M51.97,96.63
					c-0.88-1.63-1.19-9.72,5.41-20.82c5.9-9.94,14.16-16.81,19.58-19.98c4.29-2.51,18.04-8.66,18.53,1.88
					c0.46,9.84-8.34,9.43-14.1,12.86C65.83,79.83,61.5,86,57.65,92.1C55.41,95.65,52.82,98.08,51.97,96.63"/>
				<path opacity="0.3333" fill-rule="evenodd" clip-rule="evenodd" fill="#E7BFC1" d="M52.14,96.27c-0.87-1.61-1.17-9.57,5.32-20.5
					C63.27,66,71.39,59.22,76.72,56.08c4.22-2.49,17.74-8.58,18.23,1.8c0.46,9.69-8.2,9.3-13.86,12.69
					C65.78,79.73,61.51,85.81,57.73,91.8C55.52,95.29,52.98,97.69,52.14,96.27"/>
				<path opacity="0.3529" fill-rule="evenodd" clip-rule="evenodd" fill="#E8BFC2" d="M52.32,95.91
					c-0.85-1.59-1.16-9.43,5.24-20.18c5.71-9.6,13.68-16.29,18.92-19.4c4.15-2.46,17.44-8.49,17.93,1.72
					c0.46,9.54-8.06,9.17-13.63,12.52C65.72,79.62,61.53,85.62,57.81,91.5C55.64,94.94,53.13,97.3,52.32,95.91"/>
				<path opacity="0.3725" fill-rule="evenodd" clip-rule="evenodd" fill="#E8C0C3" d="M52.49,95.55
					c-0.84-1.57-1.15-9.28,5.15-19.86c5.61-9.42,13.44-16.03,18.59-19.1c4.08-2.43,17.13-8.4,17.62,1.63
					c0.46,9.38-7.92,9.04-13.39,12.35C65.67,79.51,61.54,85.42,57.89,91.2C55.76,94.58,53.29,96.91,52.49,95.55"/>
				<path opacity="0.3922" fill-rule="evenodd" clip-rule="evenodd" fill="#E9C2C3" d="M52.66,95.19
					c-0.83-1.56-1.13-9.14,5.07-19.54c5.52-9.25,13.2-15.77,18.26-18.81c4.01-2.41,16.83-8.31,17.32,1.55
					c0.46,9.23-7.77,8.91-13.15,12.18c-14.54,8.83-18.6,14.66-22.18,20.33C55.87,94.23,53.45,96.53,52.66,95.19"/>
				<path opacity="0.4118" fill-rule="evenodd" clip-rule="evenodd" fill="#E9C3C4" d="M52.83,94.82
					c-0.82-1.54-1.12-8.99,4.98-19.21c5.42-9.08,12.97-15.51,17.93-18.52c3.93-2.38,16.53-8.22,17.02,1.47
					c0.46,9.08-7.63,8.78-12.92,12.01C65.57,79.3,61.57,85.04,58.06,90.6C55.99,93.87,53.61,96.14,52.83,94.82"/>
				<path opacity="0.4314" fill-rule="evenodd" clip-rule="evenodd" fill="#E9C4C5" d="M53,94.46c-0.8-1.52-1.1-8.84,4.9-18.89
					c5.32-8.91,12.73-15.25,17.6-18.22c3.86-2.36,16.23-8.13,16.72,1.39c0.46,8.93-7.49,8.65-12.68,11.84
					c-14.02,8.62-17.95,14.27-21.4,19.73C56.11,93.52,53.76,95.75,53,94.46"/>
				<path opacity="0.451" fill-rule="evenodd" clip-rule="evenodd" fill="#EAC5C6" d="M53.18,94.1c-0.79-1.5-1.1-8.71,4.81-18.57
					c5.21-8.75,12.49-14.99,17.27-17.93c3.79-2.33,15.93-8.05,16.42,1.3c0.46,8.78-7.35,8.52-12.44,11.67
					C65.47,79.08,61.6,84.65,58.22,90C56.22,93.16,53.92,95.36,53.18,94.1"/>
				<path opacity="0.4706" fill-rule="evenodd" clip-rule="evenodd" fill="#EAC6C7" d="M53.35,93.74
					c-0.78-1.49-1.09-8.56,4.73-18.25c5.12-8.58,12.25-14.73,16.94-17.64c3.72-2.31,15.63-7.96,16.12,1.22
					c0.46,8.63-7.21,8.39-12.21,11.5C65.41,78.98,61.62,84.46,58.3,89.7C56.34,92.8,54.08,94.97,53.35,93.74"/>
				<path opacity="0.4902" fill-rule="evenodd" clip-rule="evenodd" fill="#EAC7C7" d="M53.52,93.38
					c-0.76-1.47-1.07-8.41,4.64-17.93c5.02-8.41,12.02-14.47,16.61-17.34c3.65-2.28,15.33-7.87,15.81,1.14
					c0.45,8.48-7.07,8.26-11.97,11.33C65.36,78.87,61.63,84.26,58.38,89.4C56.45,92.45,54.24,94.58,53.52,93.38"/>
				<path opacity="0.5098" fill-rule="evenodd" clip-rule="evenodd" fill="#EBC8C8" d="M53.69,93.02c-0.75-1.45-1.05-8.26,4.55-17.6
					c4.93-8.23,11.78-14.21,16.28-17.05c3.58-2.26,15.03-7.78,15.51,1.06c0.45,8.33-6.93,8.13-11.73,11.16
					C65.31,78.76,61.64,84.07,58.46,89.1C56.57,92.09,54.39,94.19,53.69,93.02"/>
				<path opacity="0.5294" fill-rule="evenodd" clip-rule="evenodd" fill="#EBC9C9" d="M53.87,92.66
					c-0.74-1.43-1.03-8.11,4.47-17.28c4.84-8.06,11.54-13.95,15.95-16.76c3.51-2.23,14.73-7.69,15.21,0.97
					c0.45,8.18-6.78,8-11.5,10.99c-12.74,8.08-16.34,13.3-19.45,18.22C56.69,91.74,54.55,93.8,53.87,92.66"/>
				<path opacity="0.549" fill-rule="evenodd" clip-rule="evenodd" fill="#EBCAC9" d="M54.04,92.3c-0.72-1.41-1.01-7.97,4.38-16.96
					c4.74-7.89,11.3-13.69,15.62-16.46c3.44-2.21,14.43-7.6,14.91,0.89c0.45,8.03-6.64,7.87-11.26,10.82
					c-12.48,7.97-16.01,13.1-19.06,17.92C56.8,91.38,54.71,93.41,54.04,92.3"/>
				<path opacity="0.5686" fill-rule="evenodd" clip-rule="evenodd" fill="#EBCCCB" d="M54.21,91.94c-0.71-1.4-0.99-7.82,4.3-16.64
					c4.65-7.72,11.07-13.43,15.29-16.17c3.37-2.18,14.13-7.52,14.61,0.81c0.45,7.88-6.5,7.74-11.02,10.65
					C65.16,78.44,61.69,83.49,58.71,88.2C56.92,91.03,54.87,93.02,54.21,91.94"/>
				<path opacity="0.5882" fill-rule="evenodd" clip-rule="evenodd" fill="#ECCDCB" d="M54.38,91.58c-0.7-1.38-0.98-7.67,4.21-16.32
					c4.56-7.54,10.83-13.17,14.96-15.88c3.3-2.16,13.83-7.43,14.3,0.73c0.45,7.73-6.36,7.61-10.79,10.48
					C65.1,78.34,61.7,83.3,58.79,87.91C57.04,90.67,55.02,92.63,54.38,91.58"/>
				<path opacity="0.6078" fill-rule="evenodd" clip-rule="evenodd" fill="#ECCDCC" d="M54.55,91.21
					c-0.68-1.36-0.97-7.53,4.13-15.99c4.45-7.38,10.59-12.91,14.63-15.58c3.23-2.13,13.53-7.34,14,0.64
					c0.45,7.58-6.22,7.48-10.55,10.31c-11.71,7.64-15.04,12.52-17.89,17.02C57.15,90.32,55.18,92.24,54.55,91.21"/>
				<path opacity="0.6275" fill-rule="evenodd" clip-rule="evenodd" fill="#ECCFCD" d="M54.73,90.85
					c-0.67-1.34-0.96-7.38,4.04-15.67c4.35-7.21,10.35-12.65,14.3-15.29c3.16-2.11,13.23-7.25,13.7,0.56
					c0.45,7.42-6.08,7.35-10.31,10.14C65,78.12,61.73,82.91,58.95,87.31C57.27,89.96,55.34,91.85,54.73,90.85"/>
				<path opacity="0.6471" fill-rule="evenodd" clip-rule="evenodd" fill="#EDD0CE" d="M54.9,90.49c-0.66-1.33-0.95-7.24,3.96-15.35
					c4.25-7.04,10.12-12.39,13.97-15c3.09-2.08,12.93-7.16,13.4,0.48c0.45,7.27-5.94,7.22-10.08,9.96
					c-11.2,7.43-14.4,12.13-17.11,16.42C57.38,89.61,55.5,91.46,54.9,90.49"/>
				<path opacity="0.6667" fill-rule="evenodd" clip-rule="evenodd" fill="#EDD1CF" d="M55.07,90.13
					c-0.65-1.31-0.93-7.09,3.87-15.03c4.16-6.87,9.88-12.14,13.64-14.7c3.02-2.06,12.62-7.07,13.1,0.4c0.45,7.12-5.8,7.09-9.84,9.79
					c-10.94,7.32-14.07,11.94-16.73,16.12C57.5,89.25,55.65,91.08,55.07,90.13"/>
				<path opacity="0.6863" fill-rule="evenodd" clip-rule="evenodd" fill="#EDD2D0" d="M55.24,89.77
					c-0.63-1.29-0.92-6.95,3.79-14.71c4.06-6.7,9.64-11.88,13.31-14.41c2.95-2.03,12.32-6.99,12.8,0.31
					c0.45,6.97-5.65,6.96-9.6,9.62c-10.69,7.21-13.75,11.74-16.34,15.82C57.62,88.89,55.81,90.69,55.24,89.77"/>
				<path opacity="0.7059" fill-rule="evenodd" clip-rule="evenodd" fill="#EDD3D0" d="M55.42,89.41c-0.62-1.27-0.9-6.8,3.7-14.38
					c3.96-6.53,9.4-11.62,12.98-14.12c2.88-2.01,12.02-6.9,12.49,0.23c0.45,6.82-5.51,6.83-9.37,9.45
					C64.79,77.7,61.79,82.14,59.27,86.11C57.73,88.54,55.97,90.3,55.42,89.41"/>
				<path opacity="0.7255" fill-rule="evenodd" clip-rule="evenodd" fill="#EED5D1" d="M55.59,89.05
					c-0.61-1.25-0.89-6.66,3.61-14.06c3.86-6.36,9.17-11.36,12.65-13.82c2.81-1.99,11.72-6.81,12.19,0.15
					c0.45,6.67-5.37,6.7-9.13,9.28c-10.17,7-13.1,11.35-15.56,15.21C57.85,88.18,56.13,89.91,55.59,89.05"/>
				<path opacity="0.7451" fill-rule="evenodd" clip-rule="evenodd" fill="#EED6D2" d="M55.76,88.69
					c-0.59-1.24-0.88-6.51,3.53-13.74c3.77-6.19,8.93-11.1,12.32-13.53c2.74-1.96,11.42-6.72,11.89,0.07
					c0.45,6.52-5.23,6.57-8.89,9.11c-9.92,6.89-12.78,11.16-15.17,14.91C57.96,87.83,56.28,89.52,55.76,88.69"/>
				<path opacity="0.7647" fill-rule="evenodd" clip-rule="evenodd" fill="#EED6D3" d="M55.93,88.33
					c-0.58-1.22-0.86-6.36,3.44-13.42c3.67-6.02,8.69-10.84,11.99-13.23c2.67-1.94,11.12-6.63,11.59-0.02
					c0.45,6.37-5.09,6.44-8.66,8.94c-9.66,6.78-12.46,10.96-14.78,14.61C58.08,87.47,56.44,89.13,55.93,88.33"/>
				<path opacity="0.7843" fill-rule="evenodd" clip-rule="evenodd" fill="#EFD8D4" d="M56.1,87.96c-0.57-1.2-0.85-6.22,3.36-13.1
					c3.57-5.85,8.45-10.58,11.66-12.94c2.6-1.91,10.82-6.54,11.29-0.1c0.45,6.22-4.95,6.31-8.42,8.77
					c-9.41,6.68-12.13,10.77-14.39,14.31C58.2,87.12,56.6,88.74,56.1,87.96"/>
				<path opacity="0.8039" fill-rule="evenodd" clip-rule="evenodd" fill="#F0D9D4" d="M56.28,87.6c-0.55-1.18-0.83-6.07,3.27-12.77
					c3.48-5.67,8.22-10.32,11.33-12.65C73.4,60.29,81.4,55.73,81.86,62c0.45,6.07-4.81,6.18-8.18,8.6
					c-9.15,6.57-11.81,10.57-14,14.01C58.31,86.76,56.75,88.35,56.28,87.6"/>
				<path opacity="0.8235" fill-rule="evenodd" clip-rule="evenodd" fill="#F0DAD5" d="M56.45,87.24
					c-0.54-1.16-0.82-5.93,3.19-12.45c3.38-5.5,7.98-10.07,11-12.35c2.46-1.87,10.22-6.37,10.68-0.27c0.45,5.92-4.67,6.05-7.95,8.43
					c-8.9,6.46-11.49,10.38-13.61,13.71C58.43,86.4,56.91,87.96,56.45,87.24"/>
				<path opacity="0.8431" fill-rule="evenodd" clip-rule="evenodd" fill="#F0DBD6" d="M56.62,86.88c-0.53-1.15-0.81-5.78,3.1-12.13
					c3.28-5.33,7.74-9.81,10.66-12.06c2.39-1.84,9.92-6.28,10.38-0.35c0.45,5.77-4.53,5.92-7.71,8.26
					c-8.64,6.36-11.16,10.19-13.22,13.41C58.54,86.05,57.07,87.57,56.62,86.88"/>
				<path opacity="0.8627" fill-rule="evenodd" clip-rule="evenodd" fill="#F1DCD7" d="M56.79,86.52
					c-0.51-1.13-0.79-5.64,3.02-11.81c3.19-5.16,7.51-9.55,10.33-11.77c2.32-1.82,9.62-6.19,10.08-0.43
					c0.45,5.61-4.38,5.79-7.47,8.09c-8.39,6.25-10.84,9.99-12.83,13.11C58.66,85.69,57.23,87.18,56.79,86.52"/>
				<path opacity="0.8824" fill-rule="evenodd" clip-rule="evenodd" fill="#F1DDD8" d="M56.97,86.16c-0.5-1.11-0.78-5.49,2.93-11.49
					c3.09-4.99,7.27-9.29,10-11.47c2.25-1.79,9.32-6.1,9.78-0.51c0.45,5.46-4.24,5.66-7.24,7.92C64.31,76.75,61.93,80.4,60,83.41
					C58.78,85.34,57.38,86.79,56.97,86.16"/>
				<path opacity="0.902" fill-rule="evenodd" clip-rule="evenodd" fill="#F1DED9" d="M57.14,85.8c-0.49-1.09-0.76-5.34,2.84-11.16
					c2.99-4.82,7.03-9.04,9.67-11.18c2.18-1.77,9.02-6.02,9.48-0.6c0.45,5.31-4.1,5.53-7,7.75c-7.88,6.04-10.19,9.6-12.05,12.51
					C58.89,84.98,57.54,86.4,57.14,85.8"/>
				<path opacity="0.9216" fill-rule="evenodd" clip-rule="evenodd" fill="#F1DFDA" d="M57.31,85.44c-0.48-1.08-0.75-5.2,2.76-10.84
					c2.89-4.65,6.8-8.78,9.34-10.89c2.11-1.75,8.72-5.93,9.17-0.68c0.45,5.16-3.96,5.4-6.76,7.58c-7.62,5.93-9.87,9.41-11.66,12.21
					C59.01,84.63,57.7,86.01,57.31,85.44"/>
				<path opacity="0.9412" fill-rule="evenodd" clip-rule="evenodd" fill="#F2E0DA" d="M57.48,85.08
					c-0.46-1.06-0.74-5.05,2.67-10.52c2.8-4.48,6.56-8.52,9.01-10.59c2.04-1.73,8.42-5.84,8.87-0.76c0.45,5.01-3.82,5.27-6.53,7.41
					c-7.37,5.83-9.54,9.21-11.27,11.91C59.12,84.27,57.86,85.63,57.48,85.08"/>
				<path opacity="0.9608" fill-rule="evenodd" clip-rule="evenodd" fill="#F2E2DC" d="M57.65,84.72c-0.45-1.04-0.72-4.91,2.59-10.2
					c2.7-4.31,6.32-8.26,8.68-10.3c1.97-1.7,8.12-5.75,8.57-0.84c0.45,4.86-3.68,5.14-6.29,7.24c-7.12,5.72-9.22,9.02-10.88,11.61
					C59.24,83.92,58.01,85.24,57.65,84.72"/>
				<path opacity="0.9804" fill-rule="evenodd" clip-rule="evenodd" fill="#F2E3DC" d="M57.83,84.35c-0.44-1.02-0.71-4.76,2.5-9.88
					c2.6-4.14,6.09-8.01,8.35-10.01c1.91-1.68,7.82-5.66,8.27-0.93c0.45,4.71-3.54,5.01-6.05,7.07c-6.86,5.62-8.9,8.82-10.49,11.3
					C59.35,83.56,58.17,84.85,57.83,84.35"/>
				<path id="XMLID_1_" fill-rule="evenodd" clip-rule="evenodd" fill="#F2E3DD" d="M58,83.99c-0.42-1-0.59-4.55,2.42-9.55
					c2.6-3.92,5.72-7.9,8.02-9.71c1.72-1.78,7.39-5.56,7.97-1.01c0.32,4.57-3.28,5.03-5.82,6.9c-6.27,5.89-8.42,8.74-10.1,11
					C59.57,83.27,58.33,84.46,58,83.99"/>
			</g>
		</g>
		<g id="gLogo">
			<path id="XMLID_435_" fill="#EF4D52" d="M72.45,86.17c0,0,0.04-10.14,5.42-15.44c11.32-11.14,28.23,6.39,28.23,6.39l28.71,24.6
				c0,0,11.7,7.57,1.99,17.78c-7.24,7.66-19.87-1.18-19.87-1.18L99.51,105.5c0,0-2.08-2.18-4.4-1.09c-2.33,1.11-1.82,5.78-1.82,5.78
				v46.83l-0.09,9.67l35.43,0.09c0,0-0.16-9.91,0-13.83c0.18-3.99,0.54-4.94,1.66-6.05c1.46-1.45,5.26-1,5.26-1h14.81
				c0,0,20.35,0.13,20.35-26.17c0-33.83-41.58-29.39-41.58-29.39s-10.96,0.15-10.96-10.77c0-10.92,11.1-11.53,11.1-11.53
				s64.66-12.05,64.66,50.06c0,22.03-4.83,34.23-14,40.92c-13.31,9.71-32.5,7.92-32.5,7.92v3.24c0,0-0.43,17.1-17.85,17.1h-43.2
				c0,0-13.92-1.72-13.92-17.19V86.17z"/>
			<linearGradient id="XMLID_8_" gradientUnits="userSpaceOnUse" x1="28.2025" y1="157.9881" x2="156.4216" y2="103.5623">
				<stop  offset="0" style="stop-color:#283875"/>
				<stop  offset="0.2716" style="stop-color:#194276"/>
				<stop  offset="0.4172" style="stop-color:#0F4977"/>
				<stop  offset="0.4943" style="stop-color:#255492"/>
				<stop  offset="0.5522" style="stop-color:#375EAA"/>
				<stop  offset="0.6626" style="stop-color:#3259A7"/>
				<stop  offset="0.8457" style="stop-color:#2C4689"/>
				<stop  offset="1" style="stop-color:#283875"/>
			</linearGradient>
			<path id="XMLID_444_" fill="url(#XMLID_8_)" d="M74.74,68.56C69.34,73.87,69.31,84,69.31,84v83.96c0,15.46,13.93,17.2,13.93,17.2
				h43.18c17.43,0,17.87-17.14,17.87-17.14v-3.24c0,0,19.21,1.82,32.49-7.89c9.17-6.7,14-18.88,14-40.93
				c0-62.12-64.67-50.02-64.67-50.02s-11.07,0.57-11.07,11.5c0,10.94,10.93,10.78,10.93,10.78s41.61-4.43,41.61,29.39
				c0,26.3-20.37,26.17-20.37,26.17h-14.8c0,0-3.79-0.45-5.27,0.98c-1.12,1.12-1.46,2.07-1.64,6.09c-0.16,3.88,0,13.81,0,13.81
				l-35.43-0.1l0.09-9.64v-46.83c0,0-0.5-4.71,1.82-5.8c2.28-1.09,4.42,1.06,4.42,1.06l17.41,12.84c0,0,12.63,8.82,19.88,1.17
				c9.7-10.24-2-17.77-2-17.77l-28.71-24.62c0,0-9.75-10.1-19.38-10.1C80.51,64.85,77.45,65.87,74.74,68.56"/>
			<linearGradient id="XMLID_9_" gradientUnits="userSpaceOnUse" x1="94.7226" y1="47.7463" x2="126.4481" y2="131.1241">
				<stop  offset="0" style="stop-color:#FFFFFF;stop-opacity:0.3"/>
				<stop  offset="0.5194" style="stop-color:#E1E3E4;stop-opacity:0.1598"/>
				<stop  offset="1" style="stop-color:#C9CDCF;stop-opacity:0.03"/>
			</linearGradient>
			<path id="XMLID_439_" fill="url(#XMLID_9_)" d="M76.53,72.34c-5.12,5.02-5.14,14.64-5.14,14.64v79.5
				c0,14.65,13.19,16.29,13.19,16.29h40.91c16.51,0,16.92-16.22,16.92-16.22v-3.07c0,0,18.19,1.71,30.77-7.47
				c8.71-6.36,13.26-17.9,13.26-38.78c0-58.84-61.23-47.41-61.23-47.41s-10.51,0.56-10.51,10.91c0,10.37,10.36,10.21,10.36,10.21
				s39.39-4.21,39.39,27.83c0,24.93-19.27,24.79-19.27,24.79h-14.02c0,0-3.61-0.42-4.99,0.95c-1.08,1.06-1.4,1.96-1.55,5.77
				c-0.18,3.67-0.01,13.08-0.01,13.08l-33.56-0.09l0.07-9.18v-44.33c0,0-0.47-4.46,1.73-5.49c2.2-1.03,4.2,1.02,4.2,1.02l16.5,12.14
				c0,0,11.95,8.37,18.83,1.14c9.17-9.71-1.89-16.87-1.89-16.87l-27.2-23.31c0,0-9.22-9.55-18.35-9.55
				C82.01,68.82,79.11,69.79,76.53,72.34"/>
			<rect x="45.2" y="45.2" fill="none" width="159.6" height="159.6"/>
		</g>
	</g>
</g>
	<style>
		/*******************/

		#gBallTini{
			transform-box: fill-box;
			-webkit-transform-origin: 50% 50%;
			-ms-transform-origin: 50% 50%;
			transform-origin: 50% 50%;
			-webkit-animation: gBallTiniAnim 0.5s alternate forwards 2 linear;
			animation: gBallTiniAnim 0.5s alternate forwards 2 linear;
		}
		#gLogoTini > *{
			transform-box: fill-box;
			-webkit-transform-origin: 50% 50%;
			-ms-transform-origin: 50% 50%;
			transform-origin: 50% 50%;
			-webkit-animation: gLogoTini1Anim 0.5s alternate forwards 2 ease-in-out;
			animation: gLogoTini1Anim 0.5s alternate forwards 2 ease-in-out;
		}
		#gLogo,#gLogoTini{
			transform-box: fill-box;
			-webkit-transform-origin: 50% 50%;
			-ms-transform-origin: 50% 50%;
			transform-origin: 50% 50%;
			-webkit-animation: moveAnim 1s forwards 2 linear;
			animation: moveAnim 1s forwards 2 linear;
		}

		/*******************/

		@-webkit-keyframes gBallTiniAnim {
			0%{
				opacity: 1;
				-webkit-transform: scale(1);
				transform: scale(1);
			}
			100%{
				opacity: 0.5;
				-webkit-transform: scale(0.95);
				transform: scale(0.95);
			}
		}
		@keyframes gBallTiniAnim {
			0%{
				opacity: 1;
				-webkit-transform: scale(1);
				transform: scale(1);
			}
			100%{
				opacity: 0.5;
				-webkit-transform: scale(0.95);
				transform: scale(0.95);
			}
		}
		@-webkit-keyframes gLogoTini1Anim {
			0%{
				opacity: 1;
				-webkit-transform: scale(1);
				transform: scale(1);
			}
			100%{
				opacity: 0;
				-webkit-transform: scale(0.2);
				transform: scale(0.2);
			}
		}
		@keyframes gLogoTini1Anim {
			0%{
				opacity: 1;
				-webkit-transform: scale(1);
				transform: scale(1);
			}
			100%{
				opacity: 0;
				-webkit-transform: scale(0.2);
				transform: scale(0.2);
			}
		}
		@-webkit-keyframes moveAnim {
			0%{
				-webkit-transform: translate(0px, 0px) scale(1,1);
				transform: translate(0px, 0px) scale(1,1);
			}
			49.998%{
				-webkit-transform: translate(140px, 0px) scale(0.4,0.8);
				transform: translate(140px, 0px) scale(0.4,0.8);
			}
			49.999%{
				-webkit-transform: translate(-140px, 0px) scale(0.4,0.8);
				transform: translate(-140px, 0px) scale(0.4,0.8);
			}
			100%{
				-webkit-transform: translate(0px, 0px) scale(1,1);
				transform: translate(0px, 0px) scale(1,1);
			}
		}
		@keyframes moveAnim {
			0%{
				-webkit-transform: translate(0px, 0px) scale(1,1);
				transform: translate(0px, 0px) scale(1,1);
			}
			49.998%{
				-webkit-transform: translate(140px, 0px) scale(0.4,0.8);
				transform: translate(140px, 0px) scale(0.4,0.8);
			}
			49.999%{
				-webkit-transform: translate(-140px, 0px) scale(0.4,0.8);
				transform: translate(-140px, 0px) scale(0.4,0.8);
			}
			100%{
				-webkit-transform: translate(0px, 0px) scale(1,1);
				transform: translate(0px, 0px) scale(1,1);
			}
		}

		/********/

		#nampostLogo{
			opacity: 1;
		}


	</style>
</svg>
